<?xml version="1.0" encoding="UTF-8" standalone="no"?>
<!-- Created with Inkscape (http://www.inkscape.org/) -->

<svg
   width="100mm"
   height="100mm"
   viewBox="0 0 100 100"
   version="1.1"
   id="svg912"
   sodipodi:docname="domino4_grey.svg"
   inkscape:version="1.2.2 (b0a84865, 2022-12-01)"
   inkscape:export-filename="/Users/bjarkegotfredsen/Desktop/domino4.png"
   inkscape:export-xdpi="96.036186"
   inkscape:export-ydpi="96.036186"
   xmlns:inkscape="http://www.inkscape.org/namespaces/inkscape"
   xmlns:sodipodi="http://sodipodi.sourceforge.net/DTD/sodipodi-0.dtd"
   xmlns="http://www.w3.org/2000/svg"
   xmlns:svg="http://www.w3.org/2000/svg">
  <sodipodi:namedview
     id="namedview914"
     pagecolor="#ffffff"
     bordercolor="#666666"
     borderopacity="1.0"
     inkscape:pageshadow="2"
     inkscape:pageopacity="0.0"
     inkscape:pagecheckerboard="true"
     inkscape:document-units="mm"
     showgrid="false"
     inkscape:zoom="2.0214167"
     inkscape:cx="188.97638"
     inkscape:cy="188.97638"
     inkscape:window-width="2560"
     inkscape:window-height="942"
     inkscape:window-x="0"
     inkscape:window-y="25"
     inkscape:window-maximized="1"
     inkscape:current-layer="layer1"
     units="mm"
     inkscape:showpageshadow="2"
     inkscape:deskcolor="#d1d1d1" />
  <defs
     id="defs909" />
  <g
     inkscape:label="Layer 1"
     inkscape:groupmode="layer"
     id="layer1"
     transform="translate(152.48844,-20.390811)">
    <path
       style="font-size:45.1556px;line-height:1.25;stroke-width:0.683399;fill:#808080"
       d="m -151.40115,88.164834 q -2.17457,-2.17457 0,-4.349141 l 62.337596,-62.337598 q 2.174567,-2.174568 4.349135,0 l 31.168803,31.168804 q 2.134298,2.134296 -0.04027,4.308864 l -62.337604,62.337597 q -2.17456,2.17457 -4.30887,0.0403 z"
       id="path14665" />
    <path
       style="font-size:45.1556px;line-height:1.25;fill:#000000;stroke-width:0.683399"
       d="m -118.42022,117.5215 q 0.36243,0.36242 0.72486,0 l 62.337602,-62.337609 q 0.362428,-0.362428 10e-7,-0.724854 L -86.526559,23.290235 q -0.362429,-0.362429 -0.724857,-10e-7 l -62.337604,62.337604 q -0.36242,0.362426 0,0.724852 z"
       id="path14663" />
    <path
       style="font-size:45.1556px;line-height:1.25;stroke-width:0.683399;fill:#808080"
       d="m -121.15856,105.52111 q -1.28863,-1.28864 -1.28863,-3.14105 0,-1.77186 1.28863,-3.060501 1.28863,-1.288636 3.10078,-1.328905 1.81213,0.04027 3.10076,1.328905 1.28864,1.288641 1.28864,3.060501 0,1.85241 -1.28864,3.14104 -1.28863,1.28863 -3.10077,1.24837 -1.81214,0.0403 -3.10077,-1.24836 z"
       id="path14661" />
    <path
       style="font-size:45.1556px;line-height:1.25;stroke-width:0.683399;fill:#808080"
       d="m -104.7285,89.091037 q -1.28863,-1.288629 -1.28863,-3.141042 0,-1.771868 1.28863,-3.060504 1.28864,-1.288629 3.10078,-1.328898 1.812137,0.04027 3.100771,1.328898 1.288631,1.288636 1.288631,3.060504 -10e-7,1.852413 -1.288634,3.141042 -1.288631,1.288629 -3.100768,1.24836 -1.81214,0.04027 -3.10078,-1.24836 z"
       id="path14659" />
    <path
       style="font-size:45.1556px;line-height:1.25;stroke-width:0.683399;fill:#808080"
       d="m -137.6289,89.050768 q -1.28863,-1.288636 -1.28863,-3.141042 0,-1.771868 1.28863,-3.060504 1.28863,-1.288629 3.10078,-1.328905 1.81213,0.04027 3.10076,1.328905 1.28864,1.288636 1.28864,3.060504 0,1.852406 -1.28863,3.141042 -1.28864,1.288629 -3.10077,1.24836 -1.81215,0.04027 -3.10078,-1.24836 z"
       id="path14657" />
    <path
       style="font-size:45.1556px;line-height:1.25;stroke-width:0.683399;fill:#808080"
       d="m -111.57435,63.076769 1.77187,-1.771871 16.268983,16.268987 -1.77187,1.77187 z"
       id="path14655" />
    <path
       style="font-size:45.1556px;line-height:1.25;stroke-width:0.683399;fill:#808080"
       d="m -121.19883,72.620703 q -1.28863,-1.288632 -1.28863,-3.141041 0,-1.77187 1.28863,-3.060502 1.28863,-1.288632 3.10078,-1.328903 1.81213,0.04027 3.10076,1.328901 1.28864,1.288634 1.28864,3.060504 0,1.852409 -1.28864,3.141041 -1.28863,1.288632 -3.10076,1.248364 -1.81215,0.04027 -3.10078,-1.248364 z"
       id="path14613" />
    <path
       d="m -141.35757,78.521449 h 1.43846 v 10.981054 h -3.05772 q -1.60353,0 -2.56251,-1.013993 -0.95111,-1.014001 -0.95111,-2.719724 0,-1.595668 0.99828,-2.625391 1.00613,-1.029715 2.56251,-1.029715 0.72316,0 1.57209,0.306556 z m 0,9.754831 v -4.582654 q -0.66814,-0.338001 -1.352,-0.338001 -1.06902,0 -1.70572,0.699588 -0.62883,0.69958 -0.62883,1.886509 0,1.116184 0.55023,1.721438 0.33013,0.36158 0.69958,0.48735 0.36943,0.12577 1.32841,0.12577 z"
       style="font-size:45.1556px;line-height:1.25;font-family:'Gill Sans';-inkscape-font-specification:'Gill Sans';fill:#808080;stroke-width:0.0943255"
       id="path14572" />
    <path
       d="m -134.51897,82.255164 q 1.65069,0 2.74329,1.069025 1.09261,1.061159 1.09261,2.67255 0,1.564231 -1.10833,2.601811 -1.10832,1.029723 -2.79046,1.029723 -1.62711,0 -2.71972,-1.045438 -1.0926,-1.053302 -1.0926,-2.625398 0,-1.587811 1.10047,-2.641113 1.10832,-1.06116 2.77474,-1.06116 z m -0.0786,1.28912 q -1.02972,0 -1.69,0.675993 -0.66028,0.676 -0.66028,1.721445 0,1.03758 0.676,1.697859 0.67601,0.652413 1.73716,0.652413 1.05331,0 1.72144,-0.660278 0.676,-0.668136 0.676,-1.705716 0,-1.029723 -0.69958,-1.705723 -0.69958,-0.675993 -1.76074,-0.675993 z"
       style="font-size:45.1556px;line-height:1.25;font-family:'Gill Sans';-inkscape-font-specification:'Gill Sans';fill:#808080;stroke-width:0.0943255"
       id="path14574" />
    <path
       d="m -123.15275,84.251721 v 5.250782 h -1.43847 v -4.024551 q 0,-1.202651 -0.32228,-1.674279 -0.32228,-0.479484 -1.12405,-0.479484 -0.44804,0 -0.82534,0.204373 -0.36944,0.204373 -0.84893,0.723159 v 5.250782 h -1.4306 v -7.231617 h 1.4306 v 0.951112 q 1.09261,-1.092604 2.13804,-1.092604 1.37558,0 2.13019,1.304842 1.14763,-1.320556 2.39744,-1.320556 1.0533,0 1.7293,0.770318 0.68386,0.770326 0.68386,2.35028 v 4.268225 h -1.43061 v -4.283948 q 0,-0.903953 -0.36943,-1.383437 -0.36945,-0.479493 -1.06117,-0.479493 -0.88823,0 -1.65855,0.896096 z"
       style="font-size:45.1556px;line-height:1.25;font-family:'Gill Sans';-inkscape-font-specification:'Gill Sans';fill:#808080;stroke-width:0.0943255"
       id="path14576" />
    <path
       d="m -115.92113,79.22889 q 0.35372,0 0.60525,0.243674 0.25153,0.243672 0.25153,0.597394 0,0.34586 -0.25153,0.597395 -0.25153,0.25154 -0.60525,0.25154 -0.33015,0 -0.58168,-0.25154 -0.25154,-0.259397 -0.25154,-0.597395 0,-0.330139 0.25154,-0.581673 0.25153,-0.259395 0.58168,-0.259395 z m -0.70745,3.041996 h 1.43061 v 7.231617 h -1.43061 z"
       style="font-size:45.1556px;line-height:1.25;font-family:'Gill Sans';-inkscape-font-specification:'Gill Sans';fill:#808080;stroke-width:0.0943255"
       id="path14578" />
    <path
       d="m -111.70793,82.270886 v 0.919676 q 0.95898,-1.061168 2.17735,-1.061168 0.67599,0 1.25767,0.353723 0.58167,0.345857 0.88037,0.958977 0.30656,0.605254 0.30656,1.925811 v 4.134598 h -1.4306 v -4.118876 q 0,-1.108326 -0.33801,-1.579954 -0.33799,-0.479484 -1.1319,-0.479484 -1.014,0 -1.72144,1.014 v 5.164314 h -1.46204 v -7.231617 z"
       style="font-size:45.1556px;line-height:1.25;font-family:'Gill Sans';-inkscape-font-specification:'Gill Sans';fill:#808080;stroke-width:0.0943255"
       id="path14580" />
    <path
       d="m -101.63083,82.255164 q 1.650702,0 2.743306,1.069025 1.092603,1.061159 1.092603,2.67255 0,1.564231 -1.108325,2.601811 -1.108324,1.029723 -2.790464,1.029723 -1.62711,0 -2.71972,-1.045438 -1.0926,-1.053302 -1.0926,-2.625398 0,-1.587811 1.10046,-2.641113 1.10833,-1.06116 2.77474,-1.06116 z m -0.0786,1.28912 q -1.02972,0 -1.69,0.675993 -0.66027,0.676 -0.66027,1.721445 0,1.03758 0.67599,1.697859 0.676,0.652413 1.73717,0.652413 1.05329,0 1.721435,-0.660278 0.675999,-0.668136 0.675999,-1.705716 0,-1.029723 -0.699582,-1.705723 -0.699582,-0.675993 -1.760742,-0.675993 z"
       style="font-size:45.1556px;line-height:1.25;font-family:'Gill Sans';-inkscape-font-specification:'Gill Sans';fill:#808080;stroke-width:0.0943255"
       id="path14582" />
    <path
       d="m -91.490836,78.37996 h 0.644558 v 6.162602 h 1.226232 v 1.336272 h -1.226232 v 3.623669 h -1.532788 v -3.623669 h -4.645533 v -0.676001 z m -0.88823,6.162602 v -3.183486 l -2.538928,3.183486 z"
       style="font-size:45.1556px;line-height:1.25;font-family:'Gill Sans';-inkscape-font-specification:'Gill Sans';fill:#808080;stroke-width:0.0943255"
       id="path14584" />
  </g>
</svg>
