<?xml version="1.0" encoding="UTF-8" standalone="no"?>
<svg
   inkscape:export-ydpi="177.17783"
   inkscape:export-xdpi="177.17783"
   inkscape:export-filename="/Users/bg/maxiq.space.png"
   version="1.1"
   x="0px"
   y="0px"
   width="764.73737"
   height="317.01776"
   viewBox="0 0 764.73737 317.01776"
   enable-background="new 0 0 400 400"
   xml:space="preserve"
   id="svg214"
   sodipodi:docname="maxiq.old.svg"
   inkscape:version="1.1.1 (c3084ef, 2021-09-22)"
   xmlns:inkscape="http://www.inkscape.org/namespaces/inkscape"
   xmlns:sodipodi="http://sodipodi.sourceforge.net/DTD/sodipodi-0.dtd"
   xmlns="http://www.w3.org/2000/svg"
   xmlns:svg="http://www.w3.org/2000/svg"
   xmlns:rdf="http://www.w3.org/1999/02/22-rdf-syntax-ns#"
   xmlns:cc="http://creativecommons.org/ns#"
   xmlns:dc="http://purl.org/dc/elements/1.1/"><metadata
   id="metadata220">
  <rdf:RDF>
    <cc:Work
   rdf:about="">
      <dc:format>image/svg+xml</dc:format>

      <dc:type
   rdf:resource="http://purl.org/dc/dcmitype/StillImage" />

      

    </cc:Work>

  </rdf:RDF>

</metadata>

<defs
   id="defs218">
	
	

		
		
	
			
			
			
			
			
			
			
			
			
			
			
			
			
			
		
  
  
  
  
  
  
  
  
  
  
  

  

  

  

  

  

  

  

  

</defs>

<sodipodi:namedview
   pagecolor="#ffffff"
   bordercolor="#666666"
   inkscape:document-rotation="0"
   borderopacity="1"
   objecttolerance="10"
   gridtolerance="10"
   guidetolerance="10"
   inkscape:pageopacity="0"
   inkscape:pageshadow="2"
   inkscape:window-width="1440"
   inkscape:window-height="781"
   id="namedview216"
   showgrid="false"
   inkscape:zoom="0.82250463"
   inkscape:cx="382.36867"
   inkscape:cy="158.66172"
   inkscape:window-x="0"
   inkscape:window-y="25"
   inkscape:window-maximized="0"
   inkscape:current-layer="svg214"
   inkscape:pagecheckerboard="0" />



<g
   id="Layer_2"
   display="none"
   transform="translate(526.91428,-543.20909)">
	<g
   display="inline"
   id="g211">
		<path
   opacity="0.88"
   fill="#1a5089"
   d="m 197.849,391.58 -87.487,-55.141 87.487,-49.023 91.79,52.113 z m 15.965,-35.7 16.116,-10.579 4.104,-10.132 -11.821,-8.91 -22.215,-3.519 -22.214,3.519 -11.82,8.91 4.104,10.132 20.107,10.579 z"
   id="path93"
   inkscape:connector-curvature="0" />


		<g
   id="g175">
			<g
   id="g97">
				<polygon
   fill="#b2b3b3"
   points="189.417,316.742 193.908,288.735 214.572,304.761 "
   id="polygon95" />


			</g>


			<g
   id="g101">
				<polygon
   fill="#bcbcbc"
   points="172.196,302.738 193.908,288.735 189.417,316.742 "
   id="polygon99" />


			</g>


			<g
   id="g105">
				<polygon
   fill="#b2b3b3"
   points="172.196,302.738 189.417,316.742 170.949,327.172 "
   id="polygon103" />


			</g>


			<g
   id="g109">
				<polygon
   fill="#878787"
   points="189.417,316.742 215.361,331.788 191.063,340.999 "
   id="polygon107" />


			</g>


			<g
   id="g113">
				<polygon
   fill="#939393"
   points="170.949,327.172 191.063,340.999 189.417,316.742 "
   id="polygon111" />


			</g>


			<g
   id="g117">
				<polygon
   fill="#939393"
   points="215.361,331.788 189.417,316.742 214.572,304.761 "
   id="polygon115" />


			</g>


			<g
   id="g121">
				<polygon
   fill="#cccccc"
   points="177.549,287.463 193.908,288.735 172.196,302.738 "
   id="polygon119" />


			</g>


			<g
   id="g125">
				<polygon
   fill="#aeadae"
   points="218.022,288.252 214.572,304.761 193.908,288.735 "
   id="polygon123" />


			</g>


			<g
   id="g129">
				<polygon
   fill="#878787"
   points="230.562,311.952 215.361,331.788 214.572,304.761 "
   id="polygon127" />


			</g>


			<g
   id="g133">
				<polygon
   fill="#7f7f7f"
   points="207.31,345.45 191.063,340.999 215.361,331.788 "
   id="polygon131" />


			</g>


			<g
   id="g137">
				<polygon
   fill="#848484"
   points="183.277,342.719 170.949,327.172 191.063,340.999 "
   id="polygon135" />


			</g>


			<g
   id="g141">
				<polygon
   fill="#bcbcbc"
   points="166.281,308.129 172.196,302.738 170.949,327.172 "
   id="polygon139" />


			</g>


			<g
   id="g145">
				<polygon
   fill="#c9c9c9"
   points="198.22,280.01 193.908,288.735 177.549,287.463 "
   id="polygon143" />


			</g>


			<g
   id="g149">
				<polygon
   fill="#919191"
   points="227.417,298.585 218.022,288.252 230.562,311.952 "
   id="polygon147" />


			</g>


			<g
   id="g153">
				<polygon
   fill="#787878"
   points="225.769,332.573 215.361,331.788 230.562,311.952 "
   id="polygon151" />


			</g>


			<g
   id="g157">
				<polygon
   fill="#686868"
   points="207.31,345.45 215.361,331.788 225.769,332.573 "
   id="polygon155" />


			</g>


			<g
   id="g161">
				<polygon
   fill="#686868"
   points="183.277,342.719 191.063,340.999 207.31,345.45 "
   id="polygon159" />


			</g>


			<g
   id="g165">
				<polygon
   fill="#dcdbdb"
   points="177.549,287.463 172.196,302.738 166.281,308.129 "
   id="polygon163" />


			</g>


			<g
   id="g169">
				<polygon
   fill="#bababa"
   points="198.22,280.01 218.022,288.252 193.908,288.735 "
   id="polygon167" />


			</g>


			<g
   id="g173">
				<polygon
   fill="#999999"
   points="218.022,288.252 214.572,304.761 230.562,311.952 "
   id="polygon171" />


			</g>


		</g>


		<polygon
   opacity="0.25"
   fill="#1a5089"
   points="110.361,336.439 197.849,391.58 289.639,339.529 219.022,112.934 178.077,106.757 "
   id="polygon177" />


		
			<line
   fill="none"
   stroke="#1a5089"
   stroke-width="0.5"
   stroke-miterlimit="10"
   x1="197.849"
   y1="391.57999"
   x2="197.849"
   y2="119.495"
   id="line179" />


		
			<line
   fill="none"
   stroke="#1a5089"
   stroke-width="0.5"
   stroke-miterlimit="10"
   x1="110.361"
   y1="336.439"
   x2="176.146"
   y2="112.934"
   id="line181" />


		
			<line
   fill="none"
   stroke="#1a5089"
   stroke-width="0.5"
   stroke-miterlimit="10"
   x1="289.63901"
   y1="339.52899"
   x2="223.823"
   y2="128.35001"
   id="line183" />


		<path
   opacity="0.25"
   fill="#1a5089"
   d="m 227.417,298.585 -9.395,-10.333 -19.803,-8.242 -20.671,7.453 -11.268,20.666 3.661,14.934 c 10.289,3.44 22.234,5.421 34.991,5.421 7.792,0 15.276,-0.746 22.274,-2.103 l 3.354,-14.429 z"
   id="path185"
   inkscape:connector-curvature="0" />


		<path
   fill="#282828"
   d="M 253.372,85.972 V 85.944 L 145.976,23.324 c -0.067,-0.038 -0.096,-0.108 -0.131,-0.172 l -3.081,1.752 107.613,62.799 z"
   id="path187"
   inkscape:connector-curvature="0" />


		<path
   fill="#282828"
   d="m 254.051,85.374 c 0.045,0.035 0.067,0.077 0.096,0.125 0.003,0.006 0.005,0.015 0.008,0.021 L 280.993,70.006 171.702,8.42 146.622,22.71 254.016,85.328 c 0.018,0.01 0.018,0.034 0.035,0.046 z"
   id="path189"
   inkscape:connector-curvature="0" />


		<path
   fill="#0b0b0b"
   d="m 142.765,24.904 v 81.209 l 8.69,16.386 c 0,0 38.833,17.438 65.666,47.125 l 33.257,-3.422 V 87.703 Z m 76.499,140.44 c -25.478,-28.902 -65.761,-46.046 -65.761,-46.046 l -7.311,-13.754 26.968,3.034 0.005,-60.409 16.437,9.216 c 0.127,4.566 1.88,8.195 4.044,8.195 1.437,0 2.692,-1.604 3.417,-4.012 l 16.064,9.008 v 55.091 l 33.682,36.821 z"
   id="path191"
   inkscape:connector-curvature="0" />


		<path
   fill="#1b1b1c"
   d="M 280.992,70.006 254.154,85.52 c 0.023,0.04 0.047,0.077 0.052,0.124 0.002,0.02 0.022,0.033 0.022,0.053 v 78.028 l 26.764,-17.221 z"
   id="path193"
   inkscape:connector-curvature="0" />


		<path
   fill="#1b1b1c"
   d="m 253.372,85.972 -2.994,1.731 v 78.499 l 3.07,-1.976 c -0.031,-0.06 -0.076,-0.111 -0.076,-0.184 z"
   id="path195"
   inkscape:connector-curvature="0" />


		<path
   fill="#111111"
   d="m 213.127,70.577 -16.064,-9.008 c -0.725,2.408 -1.98,4.012 -3.417,4.012 -2.164,0 -3.917,-3.629 -4.044,-8.195 l -16.437,-9.216 -0.005,60.409 -26.968,-3.034 7.311,13.754 c 0,0 40.283,17.144 65.761,46.046 l 27.545,-2.854 -33.682,-36.821 z"
   id="path197"
   inkscape:connector-curvature="0" />


		<path
   fill="#282828"
   d="m 253.372,85.944 v 0.028 l 0.782,-0.452 c -0.003,-0.007 -0.005,-0.015 -0.008,-0.021 -0.028,-0.049 -0.051,-0.09 -0.096,-0.125 -0.017,-0.012 -0.017,-0.035 -0.035,-0.045 L 146.622,22.71 l -0.776,0.442 c 0.035,0.063 0.064,0.134 0.131,0.172 z"
   id="path199"
   inkscape:connector-curvature="0" />


		<path
   opacity="0.28"
   fill="#4f4f4f"
   d="m 253.372,85.944 v 0.028 l 0.782,-0.452 c -0.003,-0.007 -0.005,-0.015 -0.008,-0.021 -0.028,-0.049 -0.051,-0.09 -0.096,-0.125 -0.017,-0.012 -0.017,-0.035 -0.035,-0.045 L 146.622,22.71 l -0.776,0.442 c 0.035,0.063 0.064,0.134 0.131,0.172 z"
   id="path201"
   inkscape:connector-curvature="0" />


		<path
   fill="#1b1b1c"
   d="m 254.206,85.645 c -0.005,-0.047 -0.028,-0.084 -0.052,-0.124 l -0.782,0.452 v 78.071 c 0,0.072 0.045,0.124 0.076,0.184 l 0.78,-0.501 V 85.698 c 0.001,-0.02 -0.02,-0.033 -0.022,-0.053 z"
   id="path203"
   inkscape:connector-curvature="0" />


		<path
   opacity="0.28"
   fill="#4f4f4f"
   d="m 254.206,85.645 c -0.005,-0.047 -0.028,-0.084 -0.052,-0.124 l -0.782,0.452 v 78.071 c 0,0.072 0.045,0.124 0.076,0.184 l 0.78,-0.501 V 85.698 c 0.001,-0.02 -0.02,-0.033 -0.022,-0.053 z"
   id="path205"
   inkscape:connector-curvature="0" />


		<polyline
   opacity="0.47"
   fill="none"
   stroke="#4f4f4f"
   stroke-width="0.75"
   stroke-miterlimit="10"
   points="213.127,70.577     213.127,125.668 246.809,162.489   "
   id="polyline207" />


		
			<line
   opacity="0.47"
   fill="none"
   stroke="#4f4f4f"
   stroke-width="0.75"
   stroke-miterlimit="10"
   x1="146.192"
   y1="105.544"
   x2="173.16"
   y2="108.578"
   id="line209" />


	</g>


</g>


<path
   id="path461"
   style="font-style:normal;font-variant:normal;font-weight:normal;font-stretch:normal;font-size:220.198px;line-height:1.25;font-family:Strasua;-inkscape-font-specification:'Strasua Normal';font-variant-ligatures:normal;font-variant-caps:normal;font-variant-numeric:normal;font-variant-east-asian:normal;opacity:1;fill:#f47521;fill-opacity:1;stroke:none;stroke-width:1.65149;stop-opacity:1"
   d="M 1.981782,199.37807 Z M 109.21821,35.330568 q 3.08277,-4.844355 7.70693,-6.826137 4.62415,-2.20198 9.46851,-2.20198 5.72515,0 9.24832,4.183762 3.52316,3.963563 3.52316,10.789701 V 145.86995 L 212.71127,35.330568 q 3.08277,-4.844355 7.48673,-6.826137 4.62416,-2.20198 9.68871,-2.20198 5.72515,0 9.24832,4.183762 3.52316,3.963563 3.52316,10.789701 V 199.37807 H 212.71127 V 83.333732 l -66.9402,105.695028 q -3.74336,5.94535 -8.14732,8.14733 -4.40396,2.20198 -9.02812,2.20198 -3.96356,0 -7.48673,-1.32119 -3.52317,-1.54139 -6.16555,-4.18376 -2.64237,-2.64238 -4.18376,-6.16555 -1.54138,-3.52316 -1.54138,-7.92712 V 83.333732 L 35.672076,199.37807 H 0 Z"
   inkscape:connector-curvature="0" />
<path
   id="path463"
   style="font-style:normal;font-variant:normal;font-weight:normal;font-stretch:normal;font-size:220.198px;line-height:1.25;font-family:Strasua;-inkscape-font-specification:'Strasua Normal';font-variant-ligatures:normal;font-variant-caps:normal;font-variant-numeric:normal;font-variant-east-asian:normal;opacity:1;fill:#f47521;fill-opacity:1;stroke:none;stroke-width:1.65149;stop-opacity:1"
   d="M 252.28497,199.37807 Z M 358.64061,35.330568 q 3.08277,-4.844355 7.48673,-6.826137 4.62416,-2.20198 9.68871,-2.20198 5.72515,0 9.02812,4.183762 3.52317,3.963563 3.52317,10.789701 V 199.37807 H 358.64061 V 83.333732 L 285.09448,199.37807 H 249.4224 Z"
   inkscape:connector-curvature="0" />
<path
   id="path465"
   style="font-style:normal;font-variant:normal;font-weight:normal;font-stretch:normal;font-size:220.198px;line-height:1.25;font-family:Strasua;-inkscape-font-specification:'Strasua Normal';font-variant-ligatures:normal;font-variant-caps:normal;font-variant-numeric:normal;font-variant-east-asian:normal;opacity:1;fill:#f47521;fill-opacity:1;stroke:none;stroke-width:1.65149;stop-opacity:1"
   d="m 398.08014,199.37807 z m 49.32435,-95.12554 -42.71841,-76.628891 h 34.35089 l 25.32277,49.764747 25.32277,-49.764747 h 34.13069 l -42.93861,79.931861 49.98494,91.82257 h -32.8095 l -33.69029,-64.29782 -33.6903,64.29782 h -33.0297 z"
   inkscape:connector-curvature="0" />
<path
   id="path467"
   style="font-style:normal;font-variant:normal;font-weight:normal;font-stretch:normal;font-size:220.198px;line-height:1.25;font-family:Strasua;-inkscape-font-specification:'Strasua Normal';font-variant-ligatures:normal;font-variant-caps:normal;font-variant-numeric:normal;font-variant-east-asian:normal;opacity:1;fill:#f47521;fill-opacity:1;stroke:none;stroke-width:1.65149;stop-opacity:1"
   d="m 540.44157,199.37807 z m 0,0 V 27.623639 H 570.3885 V 199.37807 Z"
   inkscape:connector-curvature="0" />
<path
   id="path469"
   style="font-style:normal;font-variant:normal;font-weight:normal;font-stretch:normal;font-size:220.198px;line-height:1.25;font-family:Strasua;-inkscape-font-specification:'Strasua Normal';font-variant-ligatures:normal;font-variant-caps:normal;font-variant-numeric:normal;font-variant-east-asian:normal;opacity:1;fill:#f47521;fill-opacity:1;stroke:none;stroke-width:1.65149;stop-opacity:1"
   d="M 586.59716,199.37807 Z M 673.13497,57.570566 q -12.33109,0 -22.6804,4.40396 -10.3493,4.183762 -18.05623,11.670494 -7.48673,7.486732 -11.89069,18.056236 -4.18377,10.349294 -4.18377,22.460184 0,12.11089 4.18377,22.24 4.18376,10.12911 11.67049,17.61584 7.48673,7.26653 17.83604,11.4503 10.5695,3.96356 23.12079,3.96356 h 5.06455 q 8.80792,0 11.4503,-0.88079 l -20.91881,-20.91881 24.44198,-18.49663 25.76316,24.88237 q 16.07446,-15.85426 16.07446,-39.85584 0,-12.55128 -4.40396,-22.90058 -4.18377,-10.569504 -11.8907,-17.836038 -7.48673,-7.486732 -18.05623,-11.670494 -10.34931,-4.183762 -22.4602,-4.183762 z m 81.25306,131.237994 -24.88237,18.49663 -15.85426,-14.53306 q -14.31287,6.60594 -35.45188,6.60594 h -5.06455 q -19.15723,0 -35.01148,-6.82614 -15.85426,-6.82614 -27.30456,-18.71683 -11.45029,-11.89069 -17.83603,-27.74495 -6.38574,-16.07445 -6.38574,-34.35089 0,-18.716816 6.16554,-34.130676 6.38574,-15.41386 17.61584,-26.42376 11.45029,-11.230098 27.30455,-17.395642 16.07445,-6.165543 35.45188,-6.165543 h 5.06455 q 19.37743,0 35.23168,6.165543 15.85426,6.165544 27.30455,17.395642 11.4503,11.230098 17.61584,26.643958 6.38575,15.41386 6.38575,33.910478 0,37.65386 -24.66218,62.97663 z"
   inkscape:connector-curvature="0" />

<g
   id="g404"
   transform="matrix(0.37624968,0,0,0.37624968,752.41066,-27.623495)">
  <g
   transform="rotate(28.7,-480.04603,-1146.4123)"
   id="g80"
   style="opacity:1;stop-opacity:1">
				<path
   fill="#08a88e"
   d="m 135.654,67.337 c -15.684,8.5 -21.528,28.173 -13.029,43.857 8.499,15.684 28.174,21.528 43.857,13.029 15.684,-8.499 21.528,-28.173 13.029,-43.856 -8.498,-15.684 -28.175,-21.528 -43.857,-13.03 z"
   id="path52"
   inkscape:connector-curvature="0" />


				<circle
   fill="#c7d4d1"
   cx="151.06799"
   cy="95.780998"
   r="23.966999"
   id="circle54" />


				<g
   id="g60">
					<path
   fill="#ffffff"
   d="m 139.618,70.161 c 0.564,1.039 0.178,2.339 -0.862,2.902 -1.037,0.563 -2.338,0.179 -2.902,-0.862 -0.563,-1.039 -0.176,-2.343 0.862,-2.907 1.036,-0.561 2.34,-0.172 2.902,0.867 z"
   id="path56"
   inkscape:connector-curvature="0" />


					<path
   fill="#ffffff"
   d="m 166.435,119.643 c 0.564,1.039 0.179,2.34 -0.86,2.903 -1.039,0.563 -2.341,0.176 -2.903,-0.863 -0.564,-1.039 -0.178,-2.343 0.861,-2.905 1.037,-0.561 2.339,-0.175 2.902,0.865 z"
   id="path58"
   inkscape:connector-curvature="0" />


				</g>


				<g
   id="g66">
					<path
   fill="#ffffff"
   d="m 124.781,85.854 c 1.132,0.336 1.779,1.532 1.444,2.662 -0.336,1.133 -1.53,1.779 -2.665,1.443 -1.131,-0.335 -1.781,-1.528 -1.445,-2.665 0.337,-1.129 1.533,-1.777 2.666,-1.44 z"
   id="path62"
   inkscape:connector-curvature="0" />


					<path
   fill="#ffffff"
   d="m 178.732,101.882 c 1.13,0.338 1.778,1.532 1.443,2.664 -0.335,1.131 -1.531,1.779 -2.663,1.442 -1.134,-0.338 -1.783,-1.532 -1.447,-2.664 0.338,-1.135 1.531,-1.778 2.667,-1.442 z"
   id="path64"
   inkscape:connector-curvature="0" />


				</g>


				<g
   id="g72">
					<path
   fill="#ffffff"
   d="m 125.386,107.445 c 1.039,-0.562 2.341,-0.178 2.903,0.861 0.563,1.038 0.175,2.341 -0.864,2.905 -1.039,0.563 -2.342,0.178 -2.906,-0.862 -0.561,-1.036 -0.177,-2.34 0.867,-2.904 z"
   id="path68"
   inkscape:connector-curvature="0" />


					<path
   fill="#ffffff"
   d="m 174.865,80.628 c 1.041,-0.562 2.341,-0.176 2.905,0.864 0.561,1.038 0.178,2.34 -0.862,2.902 -1.04,0.562 -2.344,0.177 -2.908,-0.86 -0.562,-1.039 -0.173,-2.34 0.865,-2.906 z"
   id="path70"
   inkscape:connector-curvature="0" />


				</g>


				<g
   id="g78">
					<path
   fill="#ffffff"
   d="m 141.08,122.284 c 0.338,-1.133 1.528,-1.78 2.662,-1.441 1.132,0.334 1.78,1.528 1.442,2.662 -0.336,1.132 -1.53,1.782 -2.664,1.446 -1.132,-0.337 -1.778,-1.535 -1.44,-2.667 z"
   id="path74"
   inkscape:connector-curvature="0" />


					<path
   fill="#ffffff"
   d="m 157.107,68.333 c 0.336,-1.131 1.53,-1.78 2.662,-1.444 1.132,0.339 1.78,1.531 1.443,2.666 -0.336,1.132 -1.532,1.779 -2.665,1.444 -1.132,-0.338 -1.777,-1.532 -1.44,-2.666 z"
   id="path76"
   inkscape:connector-curvature="0" />


				</g>


			</g>

  <path
   fill="#e3f3ef"
   d="m -504.50118,242.92782 c -0.0461,11.18952 -9.15654,20.22105 -20.34383,20.175 -11.19215,-0.0476 -20.2228,-9.1575 -20.17482,-20.34829 0.048,-11.1908 9.15798,-20.22368 20.34645,-20.17356 11.18992,0.0475 20.22193,9.15702 20.1722,20.34685 z"
   id="path82"
   inkscape:connector-curvature="0"
   style="opacity:1;stop-opacity:1" />

  <circle
   transform="rotate(28.7)"
   fill="#ffffff"
   cx="-356.09164"
   cy="458.93652"
   r="2.9400001"
   id="circle84"
   style="opacity:1;stop-opacity:1" />

</g>

<g
   id="g385"
   transform="matrix(0.54938729,0,0,1,842.62096,-154.34752)">
  <path
   fill="#08a88e"
   d="m -536.14084,163.53272 c -4.39516,4.59826 -9.28727,10.82265 -14.18973,18.46529 8.49776,1.76006 17.82058,2.75652 27.60643,2.79687 9.78713,0.0422 19.11589,-0.8734 27.62902,-2.56274 -4.83869,-7.68134 -9.67369,-13.94925 -14.02847,-18.58505 -4.03651,1.18404 -8.63629,1.84765 -13.518,1.82677 -4.88083,-0.0204 -9.47305,-0.72414 -13.49925,-1.94114 z"
   id="path30"
   inkscape:connector-curvature="0"
   style="opacity:1;stop-opacity:1" />

  <path
   fill="#7dc242"
   d="m -511.24783,161.48199 c -3.49508,0.82607 -7.34177,1.27608 -11.38182,1.25884 -4.03966,-0.0159 -7.88281,-0.50107 -11.37024,-1.35696 -0.69866,0.67433 -1.41302,1.38566 -2.14095,2.14885 4.0262,1.217 8.61754,1.92026 13.49925,1.94114 4.88259,0.0214 9.48237,-0.64225 13.518,-1.82677 -0.72459,-0.76721 -1.42993,-1.48628 -2.12424,-2.1651 z"
   id="path32"
   inkscape:connector-curvature="0"
   style="opacity:1;stop-opacity:1" />

  <path
   fill="#f47521"
   d="m -533.99989,161.38387 c 3.48743,0.85589 7.33146,1.34155 11.37024,1.35696 4.04053,0.0164 7.88586,-0.43325 11.38182,-1.25884 -4.73588,-4.62897 -8.75659,-7.12209 -11.34461,-7.13444 -2.59121,-0.0107 -6.62923,2.45055 -11.40745,7.03632 z"
   id="path34"
   inkscape:connector-curvature="0"
   style="opacity:1;stop-opacity:1" />

</g>

<g
   transform="matrix(0.32159721,0.47688195,-0.16413085,0.8789131,522.00156,-25.120966)"
   id="g24">
				<path
   fill="#fcd548"
   d="m 202.559,193.036 -13.694,9.617 c 0,0 -8.647,38.857 49.848,57.1 z"
   id="path16"
   inkscape:connector-curvature="0" />


				<path
   fill="#f7a41c"
   d="m 202.559,193.036 16.807,-6.912 c 0,0 39.279,12.885 19.348,73.629 z"
   id="path18"
   inkscape:connector-curvature="0" />


				<path
   fill="#fff2cb"
   d="m 202.559,193.036 -10.574,7.429 c 0,0 -0.712,31.295 35.66,38.859 z"
   id="path20"
   inkscape:connector-curvature="0" />


				<path
   fill="#fedb65"
   d="m 202.559,193.036 11.998,-4.805 c 0,0 26.607,16.491 13.088,51.093 z"
   id="path22"
   inkscape:connector-curvature="0" />


			</g><path
   fill="#12385e"
   d="m 555.80836,236.5387 -8.54124,-0.0127 0.49574,6.47341 c 0,0 2.40435,3.64386 8.13664,3.65047 5.73114,0.0105 8.07144,-3.62664 8.07144,-3.62664 l 0.37995,-6.47225 z"
   id="path28"
   inkscape:connector-curvature="0"
   style="stroke-width:0.600772" /><g
   transform="matrix(0.32159721,0.47688195,-0.16413085,0.8789131,522.00156,-25.120966)"
   id="g42">
				<path
   fill="none"
   stroke="#ffffff"
   stroke-width="2"
   stroke-linecap="round"
   stroke-miterlimit="10"
   d="m 185.106,202.017 c 0,0 0.028,-0.009 0.08,-0.024"
   id="path36"
   inkscape:connector-curvature="0" />


				
					<path
   fill="none"
   stroke="#ffffff"
   stroke-width="2"
   stroke-linecap="round"
   stroke-miterlimit="10"
   stroke-dasharray="0.149, 6.9543"
   d="m 192.848,199.252 c 6.607,-2.679 16.406,-7.405 25.169,-14.594"
   id="path38"
   inkscape:connector-curvature="0" />


				<path
   fill="none"
   stroke="#ffffff"
   stroke-width="2"
   stroke-linecap="round"
   stroke-miterlimit="10"
   d="m 221.104,181.978 c 0.02,-0.021 0.043,-0.04 0.063,-0.061"
   id="path40"
   inkscape:connector-curvature="0" />


			</g><path
   fill="#08a88e"
   d="m 540.28908,195.15278 c 2.95993,23.85085 6.35695,41.94157 6.35695,41.94157 0,0 3.00994,1.66318 9.1825,1.67172 6.17336,0.009 9.15491,-1.64628 9.15491,-1.64628 0,0 3.07335,-18.0805 5.60797,-41.92712 -4.4079,2.26701 -9.57865,3.57229 -15.11856,3.56251 -5.54187,-0.006 -10.73596,-1.32442 -15.18377,-3.6024 z"
   id="path44"
   inkscape:connector-curvature="0"
   style="stroke-width:0.600772" /><path
   fill="#0a7c66"
   d="m 540.28908,195.15278 -9.05838,13.52302 9.77761,67.05251 c 0,0 -0.47817,-42.36532 4.96855,-42.35792 z"
   id="path46"
   inkscape:connector-curvature="0"
   style="stroke-width:0.600772" /><path
   fill="#0a7c66"
   d="m 570.5835,195.19329 9.30099,13.54959 -8.58145,67.02864 c 0,0 -0.27824,-42.36511 -5.72529,-42.37299 z"
   id="path48"
   inkscape:connector-curvature="0"
   style="stroke-width:0.600772" /><polygon
   transform="matrix(0.32159721,0.47688195,-0.16413085,0.8789131,522.00156,-25.120966)"
   fill="#0a7c66"
   points="194.713,161.869 185.156,154.351 183.042,154.76 181.546,156.308 182.628,168.417 222.639,230.091 "
   id="polygon50" />

</svg>
