<?xml version="1.0" encoding="UTF-8" standalone="no"?>
<!-- Generator: Adobe Illustrator 22.0.1, SVG Export Plug-In . SVG Version: 6.00 Build 0)  -->

<svg
   version="1.1"
   id="svg2"
   width="377.96619"
   height="48.34016"
   viewBox="0 0 329.8614 48.34016"
   enable-background="new 0 0 275 205.38"
   sodipodi:docname="springbot-txt.svg"
   inkscape:version="1.4 (e7c3feb1, 2024-10-09)"
   inkscape:export-filename="springbot1.png"
   inkscape:export-xdpi="96"
   inkscape:export-ydpi="96"
   xmlns:inkscape="http://www.inkscape.org/namespaces/inkscape"
   xmlns:sodipodi="http://sodipodi.sourceforge.net/DTD/sodipodi-0.dtd"
   xmlns="http://www.w3.org/2000/svg"
   xmlns:svg="http://www.w3.org/2000/svg">
  <defs
     id="defs201" />
  <sodipodi:namedview
     id="namedview199"
     pagecolor="#ffffff"
     bordercolor="#000000"
     borderopacity="0.25"
     inkscape:showpageshadow="2"
     inkscape:pageopacity="0.0"
     inkscape:pagecheckerboard="0"
     inkscape:deskcolor="#d1d1d1"
     showgrid="false"
     inkscape:zoom="2.3145153"
     inkscape:cx="76.041839"
     inkscape:cy="-36.94078"
     inkscape:window-width="2560"
     inkscape:window-height="942"
     inkscape:window-x="0"
     inkscape:window-y="25"
     inkscape:window-maximized="0"
     inkscape:current-layer="svg2" />
  <g
     aria-label="SPRINGBOT"
     id="text374"
     style="font-size:28.4px;font-family:Falcon;-inkscape-font-specification:Falcon;text-align:center;letter-spacing:0.3px;text-anchor:middle;stroke:#000000;stroke-width:0.377953;paint-order:markers stroke fill"
     transform="matrix(2.3116926,0,0,2.3116926,-112.54513,-411.72973)">
    <path
       d="m 53.352298,183.15285 q -0.7668,-0.6248 -1.3632,-1.0508 -0.5964,-0.426 -1.1644,-0.6816 -0.5396,-0.2556 -1.0792,-0.3692 -0.5396,-0.1136 -1.136,-0.1136 -1.0792,0 -1.704,0.4828 -0.6248,0.4544 -0.6248,1.2496 0,0.426 0.1136,0.7668 0.1136,0.3124 0.4544,0.7384 0.3692,0.3976 1.0224,0.9656 0.6532,0.568 1.7608,1.4484 0.8804,0.71 1.4768,1.3348 0.6248,0.5964 0.9656,1.2212 0.3692,0.6248 0.5112,1.3064 0.1704,0.6532 0.1704,1.4484 0,1.5052 -0.5964,2.7832 -0.5964,1.2496 -1.6756,2.1868 -1.0508,0.9088 -2.5276,1.4484 -1.4768,0.5112 -3.209199,0.5112 -3.266,0 -5.68,-1.136 l -0.5396,-4.0612 q 0.9372,0.71 1.704,1.1928 0.7668,0.4828 1.4484,0.7952 0.6816,0.284 1.3348,0.426 0.6532,0.142 1.3348,0.142 1.363199,0 2.186799,-0.6532 0.8236,-0.6816 0.8236,-1.7608 0,-0.4544 -0.1136,-0.8236 -0.1136,-0.3692 -0.4544,-0.7952 -0.3124,-0.426 -0.9372,-0.9656 -0.596399,-0.568 -1.590399,-1.3916 -0.9372,-0.7668 -1.562,-1.42 -0.6248,-0.6532 -1.0224,-1.278 -0.3692,-0.6248 -0.5396,-1.278 -0.142,-0.6532 -0.142,-1.3916 0,-1.3916 0.5396,-2.5276 0.568,-1.136 1.5904,-1.9312 1.0224,-0.8236 2.4708,-1.2496 1.476799,-0.426 3.265999,-0.426 1.3348,0 2.414,0.2272 1.1076,0.2272 2.3004,0.71 z"
       style="font-style:italic;font-family:'Friz Quadrata';-inkscape-font-specification:'Friz Quadrata Italic'"
       id="path621" />
    <path
       d="m 61.121486,194.08685 q -0.1704,0.7668 -0.284,1.42 -0.0852,0.6532 -0.0852,1.0508 0,0.4828 0.142,0.852 0.1704,0.3692 0.6532,1.0224 h -8.1792 q 0.5112,-0.3976 0.8804,-0.7668 0.3692,-0.3976 0.6248,-0.8804 0.2556,-0.4828 0.4544,-1.1076 0.1988,-0.6532 0.3976,-1.5904 l 2.4424,-11.0476 q 0.3692,-1.6472 0.3692,-2.4708 0,-0.4544 -0.1704,-0.7952 -0.142,-0.3692 -0.6248,-1.0792 h 7.0716 q 1.3064,0 2.2152,0.0568 0.9372,0.0284 1.6188,0.142 0.6816,0.0852 1.1644,0.284 0.5112,0.1704 0.9372,0.426 0.7952,0.4828 1.2212,1.42 0.4544,0.9372 0.4544,2.13 0,1.4484 -0.5112,2.6696 -0.4828,1.1928 -1.3916,2.0732 -0.9088,0.852 -2.1868,1.3348 -1.2496,0.4828 -2.7832,0.4828 -0.9088,0 -1.5904,-0.1136 -0.6816,-0.142 -1.5052,-0.4828 0.9088,-0.0568 1.4484,-0.2556 0.568,-0.1988 1.0224,-0.6248 0.7668,-0.7668 1.2212,-2.0448 0.4544,-1.278 0.4544,-2.6412 0,-2.4992 -2.13,-2.4992 h -0.4828 z"
       style="font-style:italic;font-family:'Friz Quadrata';-inkscape-font-specification:'Friz Quadrata Italic'"
       id="path623" />
    <path
       d="m 80.051871,187.92405 q 0.1988,0.0568 0.3124,0.0852 0.142,0.0284 0.3692,0.0284 0.7952,0 1.448399,-0.3408 0.6816,-0.3692 1.1644,-0.994 0.4828,-0.6532 0.7668,-1.5052 0.284,-0.8804 0.284,-1.9028 0,-2.1016 -2.584399,-2.1016 h -0.2556 z m -9.0028,10.508 q 0.5112,-0.3976 0.8804,-0.7668 0.3692,-0.3976 0.6248,-0.8804 0.2556,-0.4828 0.4544,-1.1076 0.1988,-0.6532 0.3976,-1.5904 l 2.4424,-11.0476 q 0.3692,-1.5904 0.3692,-2.4708 0,-0.4544 -0.1704,-0.7952 -0.142,-0.3692 -0.6248,-1.0792 h 7.724799 q 1.9028,0 3.0956,0.1704 1.1928,0.1704 1.9312,0.5396 0.9088,0.4828 1.4484,1.5336 0.5396,1.0224 0.5396,2.3004 0,1.2496 -0.4828,2.4424 -0.4544,1.1644 -1.1928,1.8744 -0.6532,0.5964 -1.42,0.852 -0.7668,0.2556 -2.0448,0.284 l 1.0508,2.272 q 0.9088,1.9596 1.5336,3.2376 0.6532,1.278 1.136,2.13 0.5112,0.8236 0.8804,1.3064 0.3976,0.4544 0.8236,0.7952 -0.6532,0.0852 -1.0508,0.1136 -0.3976,0.0284 -0.6816,0.0568 -0.284,0.0284 -0.5396,0.0284 -0.2272,0 -0.5964,0 -1.4484,0 -2.414,-0.2272 -0.9372,-0.2556 -1.562,-0.8236 -0.284,-0.2556 -0.5396,-0.5964 -0.2556,-0.3408 -0.5396,-0.852 -0.2556,-0.5112 -0.568,-1.2496 -0.312399,-0.7668 -0.738399,-1.846 l -1.4484,-3.7772 -1.0792,4.828 q -0.1988,0.9372 -0.284,1.5052 -0.0852,0.5396 -0.0852,0.9656 0,0.4828 0.142,0.852 0.1704,0.3692 0.6532,1.0224 z"
       style="font-style:italic;font-family:'Friz Quadrata';-inkscape-font-specification:'Friz Quadrata Italic'"
       id="path625" />
    <path
       d="m 90.575819,198.43205 q 0.5112,-0.3976 0.852,-0.7668 0.3692,-0.3976 0.6248,-0.8804 0.284,-0.4828 0.4828,-1.1076 0.1988,-0.6532 0.3976,-1.5904 l 2.4424,-11.0476 q 0.3692,-1.5904 0.3692,-2.4708 0,-0.4544 -0.1704,-0.7952 -0.142,-0.3692 -0.6248,-1.0792 h 8.179201 q -0.5112,0.3976 -0.8804,0.7952 -0.3692,0.3692 -0.6248,0.852 -0.2556,0.4828 -0.4544,1.136 -0.1988,0.6248 -0.3976,1.562 l -2.442401,11.0476 q -0.1988,0.7952 -0.284,1.4484 -0.0852,0.6248 -0.0852,1.0224 0,0.4828 0.142,0.852 0.1704,0.3408 0.6532,1.0224 z"
       style="font-style:italic;font-family:'Friz Quadrata';-inkscape-font-specification:'Friz Quadrata Italic'"
       id="path627" />
    <path
       d="m 119.47461,198.43205 q -0.4544,0.1136 -0.852,0.142 -0.3976,0.0568 -0.9088,0.0568 -1.2212,0 -2.1016,-0.2272 -0.8804,-0.2272 -1.5904,-0.852 -0.71,-0.6532 -1.3632,-1.7608 -0.6248,-1.136 -1.3632,-2.8968 l -3.2944,-7.7532 -1.988,8.946 q -0.1988,0.9088 -0.284,1.5052 -0.0852,0.568 -0.0852,0.9656 0,0.4828 0.142,0.852 0.1704,0.3692 0.6532,1.0224 h -5.7936 q 0.5112,-0.3976 0.852,-0.7668 0.3692,-0.3976 0.6248,-0.8804 0.284,-0.4828 0.4828,-1.1076 0.1988,-0.6532 0.3976,-1.5904 l 2.4424,-11.0476 q 0.3692,-1.5904 0.3692,-2.4708 0,-0.5112 -0.1988,-0.9372 -0.1704,-0.426 -0.6532,-0.9372 h 6.4752 q 0.1136,0.3976 0.3408,1.0792 0.2272,0.6816 0.5396,1.4484 l 4.2884,10.366 1.9028,-8.5484 q 0.3692,-1.6756 0.3692,-2.4708 0,-0.4828 -0.1704,-0.8236 -0.142,-0.3692 -0.6248,-1.0508 h 5.7936 q -0.5112,0.3976 -0.8804,0.7952 -0.3408,0.3692 -0.6248,0.852 -0.2556,0.4828 -0.4544,1.136 -0.1988,0.6248 -0.3976,1.562 l -2.982,13.49 z"
       style="font-style:italic;font-family:'Friz Quadrata';-inkscape-font-specification:'Friz Quadrata Italic'"
       id="path629" />
    <path
       d="m 140.819,183.55045 q -0.8804,-1.2212 -2.0732,-1.8176 -1.1928,-0.5964 -2.8116,-0.5964 -1.5336,0 -2.8116,0.6248 -1.278,0.6248 -2.2152,1.7892 -0.9088,1.136 -1.42,2.7548 -0.4828,1.5904 -0.4828,3.55 0,2.9252 1.1928,4.6008 1.2212,1.6472 3.3512,1.6472 0.2272,0 0.3976,0 0.1704,-0.0284 0.3976,-0.0852 l 0.71,-3.1524 q 0.1704,-0.852 0.2556,-1.3064 0.1136,-0.4544 0.142,-0.71 0.0568,-0.284 0.0568,-0.426 0.0284,-0.1704 0.0284,-0.3976 0,-0.4828 -0.2272,-0.852 -0.1988,-0.3976 -0.7668,-0.9088 h 7.3272 q -0.2556,0.426 -0.426,0.71 -0.142,0.284 -0.2556,0.6248 -0.1136,0.3408 -0.2556,0.852 -0.1136,0.4828 -0.284,1.3064 l -0.6248,2.7832 q -0.3408,1.5904 -0.3408,2.4992 0,0.3124 0.1136,0.7668 -1.3916,0.4828 -3.2092,0.7384 -1.8176,0.284 -3.7488,0.284 -4.5724,0 -7.0716,-2.2436 -2.4992,-2.2436 -2.4992,-6.39 0,-2.9252 1.2496,-5.4528 1.278,-2.556 3.5216,-4.1748 3.1808,-2.272 7.8952,-2.272 1.562,0 2.84,0.1988 1.278,0.1988 2.6412,0.6532 z"
       style="font-style:italic;font-family:'Friz Quadrata';-inkscape-font-specification:'Friz Quadrata Italic'"
       id="path631" />
    <path
       d="m 149.071,195.53525 q 0.4544,0.142 0.7668,0.1988 0.3124,0.0284 0.7384,0.0284 1.6756,0 2.6696,-0.9372 1.0224,-0.9656 1.0224,-2.5844 0,-1.3916 -0.8804,-2.1868 -0.8804,-0.8236 -2.414,-0.8236 -0.142,0 -0.2556,0 -0.1136,0 -0.284,0.0568 z m 1.9312,-8.8608 q 0.2272,0.0284 0.3976,0.0568 0.1988,0 0.3408,0 1.4484,0 2.3288,-1.0508 0.9088,-1.0508 0.9088,-2.698 0,-1.0224 -0.568,-1.4484 -0.568,-0.4544 -1.846,-0.4544 h -0.3124 z m 2.556,-7.9804 q 1.1928,0 1.8744,0.0284 0.6816,0 1.1076,0.0284 0.4544,0.0284 0.7668,0.0852 0.3124,0.0568 0.71,0.1704 1.1928,0.3408 1.846,1.278 0.6816,0.9372 0.6816,2.2152 0,1.1928 -0.4544,2.3288 -0.4544,1.1076 -1.1928,1.8176 -0.568,0.568 -1.2496,0.852 -0.6816,0.284 -1.7892,0.4828 3.976,0.426 3.976,4.3452 0,1.7608 -0.852,3.2092 -0.8236,1.42 -2.2152,2.0732 -0.5964,0.284 -1.1076,0.4544 -0.5112,0.142 -1.3064,0.2272 -0.7668,0.0852 -1.9596,0.1136 -1.1644,0.0284 -3.0672,0.0284 h -7.6112 q 0.5112,-0.3976 0.8804,-0.7668 0.3692,-0.3976 0.6248,-0.8804 0.2556,-0.4828 0.4544,-1.1076 0.1988,-0.6532 0.3976,-1.5904 l 2.4424,-11.076 q 0.3692,-1.5904 0.3692,-2.4424 0,-0.4544 -0.1704,-0.7952 -0.142,-0.3692 -0.6248,-1.0792 z"
       style="font-style:italic;font-family:'Friz Quadrata';-inkscape-font-specification:'Friz Quadrata Italic'"
       id="path633" />
    <path
       d="m 173.53936,180.93765 q -2.13,0 -3.6636,3.4932 -0.3124,0.7384 -0.568,1.6188 -0.2556,0.8804 -0.4544,1.846 -0.1704,0.9656 -0.284,1.9596 -0.0852,0.9656 -0.0852,1.8744 0,2.0732 0.71,3.266 0.7384,1.1928 2.0164,1.1928 2.3572,0 3.7772,-3.7204 0.284,-0.71 0.5112,-1.562 0.2272,-0.8804 0.3976,-1.8176 0.1704,-0.9372 0.2556,-1.8744 0.1136,-0.9656 0.1136,-1.8176 0,-4.4588 -2.7264,-4.4588 z m 0.6248,-2.6412 q 3.8624,0 5.964,2.1584 1.8744,1.8744 1.8744,5.7936 0,2.8116 -0.8236,5.1404 -0.8236,2.3288 -2.3288,3.976 -1.4768,1.6472 -3.5784,2.556 -2.0732,0.9088 -4.6292,0.9088 -3.834,0 -5.8788,-2.0448 -2.0164,-2.0448 -2.0164,-5.9356 0,-1.3348 0.2272,-2.6412 0.2272,-1.3064 0.6248,-2.4992 0.426,-1.1928 1.0224,-2.2436 0.5964,-1.0508 1.3632,-1.9028 2.9252,-3.266 8.1792,-3.266 z"
       style="font-style:italic;font-family:'Friz Quadrata';-inkscape-font-specification:'Friz Quadrata Italic'"
       id="path635" />
    <path
       d="m 199.54132,182.84045 q -0.6532,-0.71 -1.2496,-0.9656 -0.5964,-0.284 -1.4768,-0.284 h -1.6756 l -2.7548,12.496 q -0.1704,0.7384 -0.284,1.42 -0.0852,0.6532 -0.0852,1.0508 0,0.4828 0.142,0.852 0.1704,0.3692 0.6532,1.0224 h -8.1792 q 0.5112,-0.3976 0.852,-0.7668 0.3692,-0.3976 0.6248,-0.8804 0.284,-0.4828 0.4828,-1.1076 0.1988,-0.6532 0.3976,-1.5904 l 2.7548,-12.4108 q -0.568,-0.0852 -0.9088,-0.1136 -0.3124,-0.0284 -0.71,-0.0284 -1.1076,0 -2.0164,0.2556 -0.8804,0.2556 -1.8744,0.8236 l 2.0164,-4.2032 q 0.4828,0.142 1.1928,0.2272 0.7384,0.0568 1.5904,0.0568 h 8.52 q 0.9372,0 1.5052,0 0.568,0 0.9656,-0.0284 0.3976,-0.0284 0.71,-0.0568 0.3124,-0.0568 0.7384,-0.1136 z"
       style="font-style:italic;font-family:'Friz Quadrata';-inkscape-font-specification:'Friz Quadrata Italic'"
       id="path637" />
  </g>
</svg>
