<?xml version="1.0" encoding="UTF-8" standalone="no"?>
<!-- Generator: Adobe Illustrator 22.0.1, SVG Export Plug-In . SVG Version: 6.00 Build 0)  -->

<svg
   version="1.1"
   id="svg2"
   width="377.95117"
   height="283.22418"
   viewBox="0 0 329.8483 283.22417"
   enable-background="new 0 0 275 205.38"
   sodipodi:docname="springbot-bok.svg"
   inkscape:version="1.2.2 (b0a84865, 2022-12-01)"
   inkscape:export-filename="springbot1.png"
   inkscape:export-xdpi="96"
   inkscape:export-ydpi="96"
   xmlns:inkscape="http://www.inkscape.org/namespaces/inkscape"
   xmlns:sodipodi="http://sodipodi.sourceforge.net/DTD/sodipodi-0.dtd"
   xmlns="http://www.w3.org/2000/svg"
   xmlns:svg="http://www.w3.org/2000/svg">
  <defs
     id="defs201" />
  <sodipodi:namedview
     id="namedview199"
     pagecolor="#ffffff"
     bordercolor="#000000"
     borderopacity="0.25"
     inkscape:showpageshadow="2"
     inkscape:pageopacity="0.0"
     inkscape:pagecheckerboard="0"
     inkscape:deskcolor="#d1d1d1"
     showgrid="false"
     inkscape:zoom="2.4000197"
     inkscape:cx="141.87384"
     inkscape:cy="143.33216"
     inkscape:window-width="2560"
     inkscape:window-height="942"
     inkscape:window-x="0"
     inkscape:window-y="25"
     inkscape:window-maximized="0"
     inkscape:current-layer="svg2" />
  <path
     id="path1093-7-6"
     style="fill:#000000;stroke-width:1.37437"
     d="m 247.11069,0 c 0,0 4.67313,3.1603079 7.42188,6.8710936 2.74873,3.7107854 6.04722,10.1713084 9.3457,14.0195304 3.29847,3.710786 7.83446,7.833103 12.23242,10.994141 4.53542,3.16104 8.10855,6.735527 7.14649,8.384765 0,0 -15.11767,-2.200102 -28.86133,0.960938 0,0 6.18434,18.691272 24.73828,24.326171 0,0 0.68686,0.13767 -0.6875,2.199218 -1.23693,2.061547 -16.63062,24.190144 -37.24609,37.521483 -20.61548,13.33135 -35.87018,21.71339 -68.58008,28.72266 0,0 -34.08479,5.2236 -41.78125,7.28515 -7.69644,2.06155 -13.19357,4.39682 -22.12695,14.42969 0,0 -2.61191,0.6883 -8.10937,-0.96094 -5.497463,-1.5118 -8.245366,-1.37488 -15.117191,-0.27539 -6.871826,1.0995 -11.407305,2.47346 -21.302734,0.82422 -9.895428,-1.78668 -16.630058,-4.80943 -18.279296,-5.77148 -1.236929,-0.96206 2.062018,7.83433 4.398437,11.13281 2.336422,3.29846 7.422096,10.03281 16.355469,10.85742 8.933373,0.82463 14.430556,-2.47349 18.003905,-3.43555 3.573349,-0.96204 6.733411,-2.0633 11.40625,-0.41406 3.710786,1.23693 4.67423,1.23871 3.849609,3.02539 -0.82462,1.78667 -2.612881,9.20724 -3.4375,18.14063 -0.82462,8.79593 -1.373067,14.84257 -10.718749,19.92773 -9.345684,5.22258 -22.402364,9.07224 -31.748046,6.46094 0,0 -6.873033,12.23178 -13.607422,17.59179 -6.734389,5.36003 -18.278682,13.60634 -26.249999,17.17969 -8.1087547,3.43591 -9.8942483,4.39668 -11.8183593,3.98437 l -3.16210932,4.39844 -7.00976538,-0.13672 -16.216796,23.77539 c 0,0 7.283223,2.88564 16.6289053,-0.27539 9.3456822,-3.16104 39.1710107,-21.98819 51.6777327,-30.23437 12.506722,-8.10875 27.348663,-17.7301 41.367187,-21.16602 15.255452,-2.47385 37.933532,-9.48288 48.791012,-13.88086 10.85749,-4.39796 34.77143,-18.28011 45.62891,-25.97656 0,0 1.78695,-1.51139 4.81054,-0.82422 4.39796,0.41232 10.44484,1.78732 12.78125,1.375 2.33643,0.13746 23.08992,-8.79617 28.3125,-11.54492 5.36003,-2.61129 29.54806,-16.21774 33.8086,-18.27929 4.26052,-2.06155 6.87098,-3.29839 5.77148,-1.51172 -1.09949,1.78667 -10.30761,11.40711 -14.98047,14.98047 -4.67282,3.43589 -8.38375,7.42267 -10.44531,5.77343 -2.06154,-1.5118 -1.09825,-2.74893 -6.5957,0.41211 -4.26053,2.47385 -23.63868,13.46875 -23.63868,13.46875 0,0 15.53049,6.45959 26.52539,5.22266 10.85749,-1.23693 16.21627,-4.67429 22.67579,-9.07227 6.32208,-4.39796 17.18023,-14.01721 20.0664,-17.45312 2.74873,-3.43591 8.65764,-10.99471 12.50586,-16.49219 3.7108,-5.63489 14.01914,-24.87595 14.84375,-26.9375 h -24.32617 c 0,0 12.64397,-17.73077 16.49219,-25.15234 3.84822,-7.421576 11.26933,-23.088326 11.68164,-24.875 0.41232,-1.786676 0.8252,-1.099092 5.49804,-0.824219 4.67284,0.274873 15.52997,-0.413661 19.51563,-1.238281 4.67284,-0.824618 11.40733,-2.611647 14.56836,-3.298828 0,0 2.88685,-2.060782 3.98632,-4.259766 V 63.35742 c 0,0.137435 -7.00882,-2.19877 -14.29296,-7.146484 -7.28413,-4.810277 -12.91945,-10.994776 -15.25586,-12.36914 -2.33643,-1.374365 -5.63466,-3.435547 -13.88086,-3.435547 0,0 -4.39776,-6.59749 -7.14649,-9.621094 -2.74872,-3.023604 -7.1479,-6.596455 -13.60742,-9.070312 C 283.39409,19.240985 274.32423,14.842246 268.96421,9.894531 263.60419,5.0842533 260.44203,0.13743655 247.11069,0 Z m 10.16993,4.5351561 c 2.33641,2.4738546 10.58247,9.7584509 12.36914,11.1328119 2.06153,1.649238 7.97173,5.909795 15.25586,9.345703 0.8246,0.41231 1.51276,0.687301 2.0625,1.09961 1.09948,0.962056 7.14703,7.421111 10.0332,11.68164 0,0 9.20747,10.857658 10.99414,13.05664 l 6.73437,8.109375 c -0.68719,0 -3.71064,-0.138154 -5.63476,0.136719 -0.75827,0.101101 -1.6631,0.363401 -2.59961,0.822265 0.88691,-0.425382 1.72914,-0.587713 2.46289,-0.685547 1.92412,-0.137435 5.08501,-0.136718 5.63476,-0.136718 h 0.13672 c 0.41231,0 1.78703,-0.138153 3.29883,0.136718 1.37437,0.137437 10.72017,5.497648 17.17969,6.322266 1.5118,0.274873 2.74888,0.27559 3.71094,-0.136719 -0.96206,-0.412312 -10.44649,-4.398076 -14.70704,-7.833984 -4.53538,-3.573347 -7.97074,-6.596221 -10.58203,-6.871094 -2.47384,-0.274871 -5.22317,0 -5.49804,0 -1.92413,-2.198979 -11.13086,-13.05664 -11.13086,-13.05664 -3.02361,-4.260529 -9.07116,-10.721537 -10.0332,-11.683593 h -0.13868 V 25.83789 c 14.15595,5.085146 21.7168,18.966796 21.7168,18.966796 0.82462,-0.137437 6.45834,-0.411673 11.81836,1.375 5.22258,1.786672 8.24577,6.184068 14.29297,10.582031 5.22257,3.710782 13.60765,7.28404 15.80664,8.246094 0,0.549746 -2.75027,3.573064 -7.56055,1.923828 3.43592,1.511799 4.67383,3.710937 4.67383,3.710937 0,0 -5.90938,2.0617 -16.9043,3.710938 -4.9477,0.824617 -9.20882,0.686982 -12.23242,0.412109 0.0129,0 0.0126,-0.01148 0.0254,-0.01367 -2.40056,-0.144517 -4.02784,-0.540597 -4.97265,-0.810547 -0.27487,0 -0.68803,-0.0012 -0.9629,-0.138672 -3.4359,-0.824617 -7.69647,-4.809748 -9.3457,-6.458984 -0.13747,0.137438 -0.13672,0.137956 -0.13672,0.275391 4.81027,7.696435 4.53516,8.382812 4.53516,8.382812 -15.80519,35.870887 -33.5342,53.188677 -38.20703,57.449217 -0.82461,0.68718 -1.23828,1.09961 -1.23828,1.09961 h 0.13867 c 1.23693,0 3.02348,-0.001 5.63476,-0.13867 10.03285,0.27487 24.73829,-0.13672 24.73829,-0.13672 -3.29846,7.14669 -5.90877,11.13322 -15.5293,26.38867 -9.75799,15.25543 -24.73998,26.3868 -36.00977,31.60937 -11.13233,5.22261 -23.63878,1.51141 -24.73828,0.82422 -1.09947,-0.54974 13.74425,-8.65745 14.84375,-8.79492 1.09949,0.54975 3.84766,2.88672 3.84766,2.88672 28.81008,-15.764 34.05099,-36.34985 34.16601,-36.8125 -0.10076,0.037 -22.78224,8.37523 -33.47851,14.13476 -10.58261,5.6349 -40.40752,20.75196 -43.15625,20.75196 -2.74874,0 -19.24034,-2.19767 -20.33984,-1.37305 -1.0995,0.68718 -14.70598,10.99502 -20.89063,14.56836 -6.18463,3.57336 -28.31144,15.66733 -47.96484,21.02734 -6.73438,2.33642 -25.288336,5.90897 -32.160154,8.38281 -6.734384,2.47386 -18.005171,8.6588 -27.488281,14.15625 -9.483108,5.49747 -24.187322,16.49324 -40.6796865,26.38867 -16.492364,9.89544 -23.6391865,9.07142 -23.9140615,8.10938 -0.274873,-0.96206 9.61914,-14.15625 9.61914,-14.15625 l 7.6972654,0.41211 c 0.9620555,-0.82462 2.0619002,-4.26133 3.2988281,-5.08594 1.2369277,-0.68719 5.3603895,-0.27401 26.1132805,-12.50586 20.752892,-12.23183 25.425781,-24.32617 25.425781,-24.32617 3.84822,0.54974 20.338992,-0.41365 32.845702,-7.97265 12.506716,-7.55902 11.682996,-17.59214 12.919926,-27.625 1.23691,-10.03286 4.94726,-17.72852 4.94726,-17.72852 -10.994908,-4.9477 -11.818949,-4.67187 -17.316405,-4.67187 -5.497453,0 -4.810657,0.9617 -12.644531,3.43554 -5.289256,1.58678 -9.759025,1.00365 -12.052734,0.34571 -0.03391,0.0203 -0.1901,0.0456 -0.179687,0.0664 -3.710784,-1.09947 -6.459422,-2.47453 -8.246094,-3.98633 -3.710783,-3.02358 -4.396484,-6.04687 -4.396484,-6.04687 13.193893,6.18462 25.42578,3.57422 25.42578,3.57422 l 4.123047,-0.6875 c 0,0 -3.849883,2.06202 -8.660156,4.39844 -3.188491,1.64255 -5.955233,2.17826 -7.318359,2.45898 1.196168,-0.11689 3.732183,-0.47483 7.318359,-2.32227 4.672838,-2.19895 8.385285,-4.26096 8.660156,-4.39843 8.521056,-2.47386 12.506367,-1.37384 19.515628,0.27539 7.28412,1.64924 10.30664,1.23633 10.30664,1.23633 7.69643,-12.23184 19.51642,-14.43012 27.21289,-16.2168 7.69643,-1.64924 27.48732,-3.29811 54.9746,-10.16992 27.48728,-8.10874 44.52943,-18.82966 61.70899,-33.12305 C 273.63596,87.409741 286.82945,64.595703 286.82945,64.595703 262.09089,54.013103 262.22984,45.216798 262.22984,45.216798 278.85966,41.643452 293.015,46.728516 293.015,46.728516 292.60267,42.467988 290.67847,35.734463 278.44663,27.48828 268.1389,20.753898 259.47958,7.6961931 257.28062,4.5351561 Z m 14.43164,44.8046859 c 10.99492,10.445164 25.5625,10.308594 25.5625,10.308594 0,0 -4.80893,-8.383848 -5.4961,-8.933594 -0.68719,-0.549744 -20.0664,-1.375 -20.0664,-1.375 z m 34.52148,10.714844 c -0.95741,0.524329 -1.9395,1.311772 -2.89453,2.759765 0.97007,-1.415556 1.95518,-2.254789 2.89453,-2.759765 z m -10.4707,17.33789 c -1.72692,2.458999 -15.1172,21.481809 -23.50196,30.769534 -8.79591,9.89541 -15.80487,14.15736 -15.39257,19.92968 0.39416,5.64948 9.35957,6.37252 10.16797,6.42774 -0.36141,-0.0516 -2.32089,-0.4822 -3.57032,-4.23047 -1.37438,-3.98567 4.39844,-13.0548 11.13281,-20.88867 6.59696,-7.97131 15.39292,-22.266219 18.69141,-27.763674 0.95054,-1.553319 1.69222,-2.87807 2.47266,-4.24414 z m -68.85547,67.052734 c -0.82463,0 -2.74809,0.27582 -5.35937,2.0625 -2.61129,1.78667 -19.37861,12.78091 -34.77149,16.21679 -15.39286,3.43593 -28.1757,5.49826 -36.42187,5.08594 -8.24619,-0.4123 -10.7189,4.1e-4 -14.42969,8.52149 -3.71077,8.52105 -10.99609,26.79882 -10.99609,26.79882 0,0 0.96352,-1.51123 2.33789,-3.84765 3.29846,-4.94772 6.04709,-9.34587 8.24609,-13.05664 1.92412,-3.02362 3.43607,-5.35989 3.71094,-5.63477 0.96206,-0.96205 1.92395,-4.26152 9.75781,-4.67383 7.83387,-0.41232 45.35322,-0.68648 83.56055,-22.95117 l 23.22656,-1.92383 h 1.09961 l 18.36914,-0.68554 c 9.9e-4,-0.004 0.0488,-0.13867 0.0488,-0.13867 l -18.41796,0.6875 h -1.09961 l 2.0625,-0.13868 -26.80078,-5.63476 c 0,0 -3.29842,-0.6875 -4.12305,-0.6875 z" />
</svg>
